<?xml version="1.0" ?><svg id="Layer_1" style="enable-background:new 0 0 128 128;" version="1.1" viewBox="0 0 128 128" xml:space="preserve" xmlns="http://www.w3.org/2000/svg" xmlns:xlink="http://www.w3.org/1999/xlink"><style type="text/css">
	.st0{fill:#0D6291;}
	.st1{fill:#A63346;}
	.st2{fill:#FCFEF9;}
	.st3{fill:#FFFFFF;}
	.st4{font-family:'HelveticaNeue';}
	.st5{font-size:14.1667px;}
	.st6{fill:#D5D5E5;}
	.st7{fill:none;stroke:#B2193A;stroke-miterlimit:10;}
</style><title/><polygon class="st0" points="33,57 39,128 89,128 95,57 "/><polygon class="st1" points="33,57 39,28 89,28 95,57 "/><polygon class="st2" points="64,115.2 65.1,118.7 68.8,118.6 65.7,120.7 66.9,124.2 64,122 61.1,124.2 62.3,120.7 59.2,118.6   62.9,118.7 "/><polygon class="st2" points="49,115.2 50.1,118.7 53.8,118.6 50.7,120.7 51.9,124.2 49,122 46.1,124.2 47.3,120.7 44.2,118.6   47.9,118.7 "/><polygon class="st2" points="79,115.2 80.1,118.7 83.8,118.6 80.7,120.7 81.9,124.2 79,122 76.1,124.2 77.3,120.7 74.2,118.6   77.9,118.7 "/><text class="st3 st4 st5" transform="matrix(1 0 0 1 44.8584 88.9961)"/><rect class="st2" height="5" width="38" x="45" y="40"/><rect class="st6" height="45" width="36" x="46"/><rect class="st3" height="44" width="34" x="47" y="1"/><rect class="st6" height="4" width="24" x="52" y="6"/><g><rect class="st6" height="4" width="4" x="52" y="16"/><rect class="st6" height="4" width="17" x="59" y="16"/><polyline class="st7" points="52,16.5 53.8,18.4 57.5,14.7  "/></g><rect class="st6" height="4" width="4" x="52" y="24"/><rect class="st6" height="4" width="17" x="59" y="24"/><rect class="st6" height="4" width="4" x="52" y="32"/><rect class="st6" height="4" width="17" x="59" y="32"/></svg>